<?xml version="1.0" encoding="utf-8"?>
<!-- Generator: Adobe Illustrator 22.1.0, SVG Export Plug-In . SVG Version: 6.00 Build 0)  -->
<svg version="1.1" id="Layer_1" xmlns="http://www.w3.org/2000/svg" xmlns:xlink="http://www.w3.org/1999/xlink" x="0px" y="0px"
	 viewBox="0 0 444 443" style="enable-background:new 0 0 444 443;" xml:space="preserve">
<style type="text/css">
	.st0{fill:#FFFFFF;}
</style>
<path class="st0" d="M228.1,443c-3.8,0-7.5,0-11.3,0c-1-0.2-2-0.4-3-0.5c-7-0.6-14.1-1-21.1-1.8c-17.7-2.2-34.9-6.7-51.5-13.3
	c-36.4-14.5-67.1-36.9-91.6-67.5C19.5,322,3.3,278.8,1.2,230.3c0-1-0.3-2-0.5-3c0-4,0-8.1,0-12.1c0.2-1.1,0.4-2.3,0.5-3.4
	C1.7,198,3.5,184.4,6.7,171c9.5-40.2,28.6-75.2,57.6-104.7c32-32.5,70.4-53.3,115.1-62.3c11.4-2.3,22.9-3.7,34.5-4c1,0,2-0.3,3-0.4
	c3.8,0,7.5,0,11.3,0c0.9,0.2,1.8,0.4,2.7,0.4c7.1,0.6,14.2,1,21.3,1.8C267,3.5,281.3,7,295.4,12c40.2,14.2,73.7,37.8,100.3,71.1
	c30,37.8,46.1,80.9,48.2,129.1c0,1,0.3,2,0.5,3c0,3.9,0,7.8,0,11.7c-0.1,0.8-0.4,1.7-0.4,2.5c-0.3,4.6-0.6,9.2-0.9,13.8
	c-1.1,13-3.4,25.9-7.2,38.3c-20.6,68.1-63.7,116.3-128.9,144.6c-2.5,1.1-5,1.9-7.7,3c-0.1-1.1-0.1-1.7-0.1-2.3
	c0-47.8,0-95.6,0-143.3c0-1.9,0.5-2.4,2.4-2.4c13.2,0.1,26.4,0,39.6,0c2.9,0,2.9,0,3-2.8c0.1-1.9,0.4-3.7,0.6-5.6
	c0.7-6.3,1.4-12.6,2-18.9c0.7-6.1,1.3-12.3,2-18.4c0.4-3.4,0.7-6.8,1-10.5c-1.1,0-1.9,0-2.8,0c-15.2,0-30.5,0-45.7,0
	c-1.5,0-2.2-0.2-2.2-2c0.2-11,0.2-21.9,0.5-32.9c0.2-8,4.3-12.9,11.9-14.1c3.5-0.6,7-0.8,10.5-0.9c8.3-0.1,16.6,0,24.9,0
	c0.8,0,1.5-0.1,2.3-0.1c0-18.8,0-37.4,0-56.1c-1,0-1.8,0-2.6,0c-14.7,0-29.4,0-44.2,0c-8.7,0-17.4,0.9-25.8,3.1
	c-20.5,5.2-34.3,17.5-40.6,37.9c-3.2,10.4-4.1,21.1-4.2,32c-0.1,10.2,0,20.4,0,30.5c0,0.8-0.1,1.7-0.1,2.7c-11.2,0-22.1,0-33.1,0
	c-0.1,0.7-0.1,1.2-0.1,1.7c0,17.5,0,34.9,0,52.4c0,1.7,0.7,2,2.2,2c9.6-0.1,19.2,0,28.8,0c0.8,0,1.5,0,2.3,0c0,53.9,0,107.5,0,161.1
	C230.2,442.5,229.2,442.8,228.1,443z"/>
</svg>
