<?xml version="1.0" encoding="utf-8"?>
<!-- Generator: Adobe Illustrator 22.1.0, SVG Export Plug-In . SVG Version: 6.00 Build 0)  -->
<svg version="1.1" id="Layer_1" xmlns="http://www.w3.org/2000/svg" xmlns:xlink="http://www.w3.org/1999/xlink" x="0px" y="0px"
	 viewBox="0 0 444 443" style="enable-background:new 0 0 444 443;" xml:space="preserve">
<style type="text/css">
	.st0{fill:#FFFFFF;}
</style>
<path class="st0" d="M221.5,0C99.2,0,0,99.2,0,221.5S99.2,443,221.5,443S443,343.8,443,221.5S343.8,0,221.5,0z M357.9,229.3
	c-0.2,0.2-0.4,0.5-0.5,0.7c-2.6,10.1-9.1,16-19.5,17.1c-4.1,0.4-8.4,0.3-12.5,0.4c-2,0-4,0-6.1,0c0,1.7,0,3,0,4.2
	c0,23.8,0,47.6,0,71.4c0,14.4-10.7,25-25,25c-48,0-96.1,0-144.1,0c-1.2,0-2.5,0-3.7-0.2c-13-2.3-21-11.8-21-25c0-23.8,0-47.6,0-71.4
	c0-1.2,0-2.4,0-3.9c-5.5,0-10.7,0.1-15.9,0C96,247.4,86.2,237.2,87,224c0.4-7.2,4.3-12.6,9.1-17.5c31.9-32.4,63.8-64.9,95.6-97.3
	c5.1-5.2,10.9-9.2,17.9-11.4c2.8-0.9,5.7-1.4,8.5-2.1c2.9,0,5.7,0,8.6,0c0.4,0.2,0.7,0.5,1.1,0.5c10.6,1.3,19.2,6.3,26.6,13.8
	c6,6.2,12.2,12.4,18.3,18.5c0.6,0.7,1.4,1.2,2.5,2.2c0-7.2,0-13.6,0-20c0-4.7,1.8-8.7,5.7-11.3c2.5-1.7,5.6-2.6,8.5-3.8
	c5.3,0,10.6,0,15.9,0c10.9,3.2,14.1,7.6,14.1,19c0,19.6,0,39.2-0.1,58.9c0,2.2,0.7,3.8,2.2,5.4c8.5,8.6,16.8,17.3,25.3,25.8
	c5.2,5.1,9.5,10.6,11.1,17.9C357.9,224.8,357.9,227.1,357.9,229.3z"/>
</svg>
