<?xml version="1.0" encoding="utf-8"?>
<!-- Generator: Adobe Illustrator 22.1.0, SVG Export Plug-In . SVG Version: 6.00 Build 0)  -->
<svg version="1.1" id="Layer_1" xmlns="http://www.w3.org/2000/svg" xmlns:xlink="http://www.w3.org/1999/xlink" x="0px" y="0px"
	 viewBox="0 0 444 443" style="enable-background:new 0 0 444 443;" xml:space="preserve">
<style type="text/css">
	.st0{fill:#FFFFFF;}
</style>
<path class="st0" d="M221.8,0.7c122.6-0.3,221.8,98.7,222.4,221.9c0.6,122.6-99,222.5-222.1,222.7C99.3,445.4-0.4,345.8-0.3,222.9
	C-0.2,100,98.8,1,221.8,0.7z M220.8,347.1c24.3,0,48.7,0.1,73,0c27.7-0.1,48-20.3,48-48c0.1-48.5,0.1-97,0-145.5
	c0-27.7-20.1-48.1-47.9-48.2c-48.5-0.2-97-0.2-145.5,0c-28.8,0.1-48.4,20.2-48.5,49c0,48,0,96,0,144c0,28.5,19.9,48.5,48.3,48.6
	C172.5,347.2,196.7,347.1,220.8,347.1z"/>
<path class="st0" d="M123.9,201.9c12.1,0,23.5,0,35.1,0c-9.7,32.9-2.3,60.1,26.1,79.8c21.6,15,50.6,14.3,72.5-0.4
	c12.9-8.7,21.7-20.5,26.4-35.3c4.6-14.7,3.8-29.2-1.6-44c12.1,0,23.6,0,35.5,0c0.1,1.8,0.2,3.4,0.2,5.1c0,30.3,0,60.7,0,91
	c0,16.4-9.3,25.8-25.7,25.8c-47.7,0-95.3,0-143,0c-16.5,0-25.8-9.3-25.8-25.6c0-30.3,0-60.7,0-91
	C123.6,205.5,123.8,203.9,123.9,201.9z"/>
<path class="st0" d="M221,183.9c23.3,0.1,42.3,18.9,42.4,42.2c0.1,23.8-19.2,43-42.9,42.8c-23.2-0.2-42.2-19.3-42.2-42.6
	C178.2,203,197.6,183.8,221,183.9z"/>
<path class="st0" d="M313.6,174c-13.6,0-26.8,0-40.3,0c0-13.4,0-26.6,0-40.3c13.3,0,26.7,0,40.3,0C313.6,147,313.6,160.2,313.6,174z
	"/>
</svg>
