<?xml version="1.0" encoding="utf-8"?>
<!-- Generator: Adobe Illustrator 22.1.0, SVG Export Plug-In . SVG Version: 6.00 Build 0)  -->
<svg version="1.1" id="Layer_1" xmlns="http://www.w3.org/2000/svg" xmlns:xlink="http://www.w3.org/1999/xlink" x="0px" y="0px"
	 viewBox="0 0 444 443" style="enable-background:new 0 0 444 443;" xml:space="preserve">
<style type="text/css">
	.st0{fill:#FFFFFF;}
</style>
<path class="st0" d="M221.1,0C99,0.1-0.1,99.3,0,221.5C0,343.7,99.1,442.9,221.2,443c122.6,0.1,221.9-99.4,221.7-222.1
	C442.6,98.8,343.4-0.1,221.1,0z M152.9,308.2c0,8.7-0.4,17.5,0.1,26.2c0.4,6.7-2.2,8.5-8.4,8.1c-8.4-0.4-16.8-0.6-25.1,0
	c-7.3,0.6-8.6-2.5-8.5-9c0.2-26.2,0.2-52.4,0.1-78.6c0-8.7,0-17.5,0-26.2c0-8.8,0-17.6,0-26.5c0-26.5,0.1-52.9-0.2-79.4
	c-0.1-7.4,2.1-9.8,9.4-9.2c7.6,0.6,15.4,0.7,23,0c8.1-0.8,9.8,2.4,9.8,10.1C152.8,185.2,152.9,246.7,152.9,308.2z M263.8,285.2
	c-47.6-0.2-85.9-38.7-85.7-86.2c0.2-46.8,38.8-85.5,85.4-85.5c47.7,0,87,39.4,86.5,86.8C349.6,246.9,310.5,285.4,263.8,285.2z"/>
</svg>
