<?xml version="1.0" encoding="utf-8"?>
<!-- Generator: Adobe Illustrator 22.1.0, SVG Export Plug-In . SVG Version: 6.00 Build 0)  -->
<svg version="1.1" id="Layer_1" xmlns="http://www.w3.org/2000/svg" xmlns:xlink="http://www.w3.org/1999/xlink" x="0px" y="0px"
	 viewBox="0 0 444 443" style="enable-background:new 0 0 444 443;" xml:space="preserve">
<style type="text/css">
	.st0{fill:#FFFFFF;}
</style>
<path class="st0" d="M0,232.5c0-7.7,0-15.4,0-23.1c0.3-1.4,0.7-2.8,0.9-4.3c0.7-6.5,1.1-13,2.1-19.4c8.3-49.3,30.3-91.4,66.5-125.7
	c34-32.2,74.3-51.8,120.8-58.5c7-1,14-1.8,21-2.6c7.1,0,14.2,0,21.3,0c1.7,0.3,3.4,0.7,5.2,0.9c9.8,1.3,19.7,1.9,29.4,4
	c49.9,10.7,91.7,35.5,124.6,74.5c27.1,32.1,43.7,69.1,49.6,110.9c0.9,6.7,1.7,13.4,2.6,20.1c0,7.7,0,15.4,0,23.1
	c-0.3,1.6-0.7,3.1-0.9,4.7c-0.8,6.5-1.1,13-2.2,19.4c-7.1,42.6-24.8,80.2-53.8,112.3c-35.8,39.6-80.2,63.5-133,71.4
	c-7.1,1.1-14.3,1.8-21.4,2.7c-7.1,0-14.2,0-21.3,0c-3.6-0.4-7.3-0.8-10.9-1.2c-43.2-4.6-82.2-19.8-116.1-47.1
	c-45.5-36.6-72.8-83.8-81.6-141.6C1.6,246.3,0.9,239.4,0,232.5z M229.4,199.2c2.4,0,4.2,0,5.9,0c19.4,0,38.8-0.1,58.2,0.1
	c3.3,0,4.8-0.7,4.7-4.4c-0.2-11.1-0.2-22.2-0.1-33.3c0.1-3.7-1.3-4.7-4.9-4.7c-18.2,0.2-36.4,0.1-54.6,0.1c-2.9,0-5.8,0-9.3,0
	c0-2.2,0-3.8,0-5.4c0-19.8-0.1-39.7,0-59.5c0-3.6-1.2-4.6-4.6-4.5c-7.8,0.2-15.7,0.1-23.5,0.1c-2.2,0-4.3,0-6.2,0
	c-1.1,7-1.5,13.4-3.1,19.5c-6.6,24.8-22.9,41.7-45.2,53c-5.8,3-7.8,6.1-7.4,12.4c0.6,8.6,0.1,17.4,0.1,26.5c10,0,19.5,0.2,28.9-0.1
	c4.3-0.1,5.5,1.2,5.5,5.4c-0.1,33.9-0.1,67.8,0,101.7c0,2.6,0.2,5.3,0.6,7.9c3.9,21,17.8,32.2,37.5,36.6c30.6,6.9,60.6,1.5,90.2-6.3
	c1.1-0.3,2.3-2.8,2.4-4.3c0.2-11.5,0.1-23.1,0.1-34.6c0-1-0.2-2-0.3-3.5c-1.9,0.7-3.5,1.5-5.2,1.9c-10.5,3-20.8,7-31.5,8.6
	c-21.9,3.3-37.9-6.9-38.3-31.8c0-0.6,0-1.2,0-1.8c0-24.7,0-49.4,0-74.1C229.4,203.2,229.4,201.6,229.4,199.2z"/>
</svg>
