<?xml version="1.0" encoding="utf-8"?>
<!-- Generator: Adobe Illustrator 22.1.0, SVG Export Plug-In . SVG Version: 6.00 Build 0)  -->
<svg version="1.1" id="Layer_1" xmlns="http://www.w3.org/2000/svg" xmlns:xlink="http://www.w3.org/1999/xlink" x="0px" y="0px"
	 viewBox="0 0 444 443" style="enable-background:new 0 0 444 443;" xml:space="preserve">
<style type="text/css">
	.st0{fill:#FFFFFF;}
</style>
<path class="st0" d="M-0.3,222.3C-0.3,99.4,99.6-0.4,222.3,0c123.1,0.5,222,99.6,222,222.3c0,123-99.8,222.6-222.6,222.2
	C98.7,444.2-0.3,345.1-0.3,222.3z M119.5,257c4,11.8,10.5,20.6,19.6,27.5c9.2,7,19.7,10.5,32.5,11.5c-24.7,18.5-51.3,25.7-80.6,23.8
	c1.5,1.5,3,2.5,4.6,3.4c33.3,18.9,68.9,25,106.5,19c83-13.3,128.6-84.2,131.6-149.6c0.5-10.4,2.4-17.9,11.1-24.3
	c6.4-4.7,11.1-11.8,16.5-17.8c-0.3-0.2-0.6-0.4-0.9-0.6c-9.3,2.5-18.7,5.1-28,7.6c-0.2-0.4-0.4-0.8-0.6-1.3
	c10.2-7.4,18.2-16.5,21.9-28.2c-10,3.6-19.8,7.1-29.6,10.7c-3.6,1.3-6,0.3-8.8-2.2c-16.5-14.2-35.4-18.2-55.9-11
	c-20.3,7.2-32.7,21.9-36.3,43.2c-1.2,7-0.2,14.4-0.2,22.2c-46.7-3.2-84.6-22.9-115.3-58.7c-13.5,29.7-7.6,54,16.3,74.6
	c-0.2,0.3-0.5,0.7-0.7,1c-7.6-2.1-15.2-4.3-23.2-6.5c-0.1,12.7,4,24.2,12,34.3c8,10.2,18.6,16.6,31.2,20c-0.1,0.4-0.2,0.8-0.2,1.3
	C135.3,257,127.8,257,119.5,257z"/>
</svg>
